<?xml version="1.0" standalone="no"?>
<!DOCTYPE svg PUBLIC "-//W3C//DTD SVG 20010904//EN"
 "http://www.w3.org/TR/2001/REC-SVG-20010904/DTD/svg10.dtd">
<svg version="1.0" xmlns="http://www.w3.org/2000/svg"
 width="512.000000pt" height="512.000000pt" viewBox="0 0 512.000000 512.000000"
 preserveAspectRatio="xMidYMid meet">

<g transform="translate(0.000000,512.000000) scale(0.100000,-0.100000)"
fill="#000000" stroke="none">
<path d="M2851 5107 c-55 -21 -112 -76 -140 -136 -24 -52 -26 -67 -29 -229 -4
-198 10 -176 -122 -187 -104 -9 -314 -50 -440 -87 -701 -205 -1286 -712 -1588
-1374 -101 -222 -190 -530 -207 -724 -5 -56 -3 -70 17 -104 41 -69 122 -94
194 -60 21 10 61 51 102 103 325 417 812 699 1362 787 128 21 461 22 590 2
l85 -13 5 -190 c6 -212 15 -249 81 -314 71 -71 161 -88 266 -50 54 20 88 51
541 503 498 496 534 537 566 645 20 67 21 200 2 262 -37 122 -46 132 -554 640
-526 525 -529 527 -642 535 -30 2 -70 -2 -89 -9z m980 -1209 c22 -44 25 -115
5 -161 -8 -18 -198 -216 -434 -451 l-420 -419 -4 189 c-3 210 -11 239 -74 276
-34 20 -169 49 -314 69 -121 16 -447 17 -570 1 -436 -57 -815 -208 -1150 -456
-52 -39 -98 -72 -102 -74 -12 -5 49 133 95 218 182 336 423 600 738 809 337
224 717 348 1127 368 147 7 179 17 218 69 l29 37 3 195 4 195 415 -414 c228
-228 423 -431 434 -451z"/>
<path d="M4574 2911 c-16 -10 -62 -58 -101 -107 -85 -107 -270 -288 -373 -366
-286 -216 -616 -356 -980 -414 -128 -21 -461 -22 -590 -2 l-85 13 -6 180 c-7
218 -20 264 -91 332 -74 72 -174 83 -279 32 -57 -28 -119 -87 -535 -503 -344
-343 -480 -486 -503 -526 -82 -146 -86 -321 -11 -471 15 -30 176 -198 507
-531 521 -522 535 -533 645 -545 112 -11 210 62 248 185 16 52 20 93 20 213 0
171 -13 153 120 164 100 8 301 48 428 84 931 267 1635 1058 1792 2012 20 124
17 168 -16 212 -41 55 -132 73 -190 38z m-277 -795 c-276 -578 -790 -1009
-1412 -1185 -155 -43 -361 -74 -577 -84 -72 -3 -103 -19 -142 -71 -19 -25 -21
-46 -26 -222 l-5 -194 -427 427 c-379 380 -428 433 -438 471 -12 46 -7 90 16
132 7 14 202 214 433 445 l421 420 0 -171 c0 -204 3 -223 44 -269 26 -29 44
-38 111 -55 244 -59 607 -72 870 -32 273 42 529 125 763 247 125 66 315 187
387 249 22 19 41 33 43 31 2 -2 -26 -64 -61 -139z"/>
</g>
</svg>
