<?xml version="1.0" standalone="no"?>
<!DOCTYPE svg PUBLIC "-//W3C//DTD SVG 20010904//EN"
 "http://www.w3.org/TR/2001/REC-SVG-20010904/DTD/svg10.dtd">
<svg version="1.0" xmlns="http://www.w3.org/2000/svg"
 width="512.000000pt" height="512.000000pt" viewBox="0 0 512.000000 512.000000"
 preserveAspectRatio="xMidYMid meet">

<g transform="translate(0.000000,512.000000) scale(0.100000,-0.100000)"
fill="#000000" stroke="none">
<path d="M2506 4770 c-16 -5 -42 -22 -59 -37 -52 -50 -57 -73 -57 -298 0 -231
7 -260 72 -307 47 -33 149 -33 196 0 65 47 72 77 72 306 0 120 -4 216 -11 233
-31 83 -125 129 -213 103z"/>
<path d="M1045 4166 c-87 -39 -126 -136 -90 -223 18 -44 241 -273 304 -314
157 -102 334 75 232 232 -41 63 -270 286 -314 304 -44 18 -92 19 -132 1z"/>
<path d="M3941 4164 c-43 -18 -273 -242 -312 -303 -96 -149 61 -323 219 -242
51 27 298 278 317 324 28 68 13 138 -41 189 -53 49 -118 61 -183 32z"/>
<path d="M2387 3570 c-209 -38 -412 -146 -558 -297 -127 -131 -199 -256 -256
-439 -25 -83 -27 -101 -27 -274 0 -173 2 -191 27 -273 58 -189 147 -336 277
-460 130 -125 257 -199 437 -254 82 -25 100 -27 273 -27 173 0 191 2 274 27
191 59 334 145 461 278 123 129 197 257 252 436 25 82 27 100 27 273 0 173 -2
191 -27 273 -92 298 -289 531 -552 653 -143 66 -233 86 -405 90 -85 1 -177 -1
-203 -6z m388 -364 c205 -70 356 -219 429 -425 29 -80 31 -95 31 -221 0 -122
-3 -143 -28 -215 -73 -207 -221 -356 -426 -429 -80 -29 -96 -31 -221 -31 -125
0 -141 2 -221 31 -272 97 -444 329 -457 615 -4 85 0 121 16 188 64 252 243
434 494 501 108 29 274 23 383 -14z"/>
<path d="M445 2716 c-45 -19 -92 -78 -100 -124 -13 -79 34 -164 108 -191 17
-7 113 -11 233 -11 229 0 259 7 306 72 33 47 33 149 0 196 -47 65 -76 72 -309
72 -149 -1 -217 -5 -238 -14z"/>
<path d="M4188 2710 c-60 -32 -83 -74 -83 -150 0 -77 24 -119 85 -150 35 -18
60 -20 244 -20 120 0 216 4 233 11 108 40 145 181 70 266 -52 59 -72 63 -304
63 -186 -1 -212 -3 -245 -20z"/>
<path d="M1259 1491 c-63 -41 -286 -270 -304 -314 -36 -88 4 -185 92 -223 86
-37 138 -12 291 139 153 150 182 192 182 262 0 135 -145 211 -261 136z"/>
<path d="M3679 1497 c-84 -56 -104 -154 -50 -238 41 -63 270 -286 314 -304 66
-27 128 -16 181 33 54 51 69 121 41 189 -19 46 -266 297 -317 324 -52 27 -126
25 -169 -4z"/>
<path d="M2500 1013 c-36 -15 -72 -48 -90 -83 -18 -35 -20 -60 -20 -245 0
-230 4 -250 63 -302 85 -75 226 -38 266 70 7 17 11 113 11 233 0 229 -7 259
-72 305 -32 23 -125 36 -158 22z"/>
</g>
</svg>
